<svg id="Layer_1" data-name="Layer 1" xmlns="http://www.w3.org/2000/svg" viewBox="0 0 26.83 51.61"><defs><style>.cls-1{fill:#fff;}</style></defs><path class="cls-1" d="M67.69,34.9c6.73.13,5.3-.26,5.47,5.62,0,.56,0,1.11,0,1.67a1.22,1.22,0,0,1-1.4,1.42c-1.34,0-2.68,0-4,0-2.65.13-3.84,1.27-3.92,3.94-.06,1.87.13,3.75.21,5.62,1.84.15,3.69.37,5.54.42,3.2.09,3.26,0,2.88,3.13-.23,2-.67,3.91-1,5.86-1.86.13-3.72.29-5.58.38s-2,.09-2,2.08c0,5.91,0,11.82,0,17.72,0,.78,0,1.56,0,2.34,0,1-.49,1.35-1.44,1.34-2.12,0-4.24,0-6.35,0-1.28,0-1.79-.44-1.78-1.73.05-3.23,0-6.46,0-9.7s0-6.24,0-9.36c0-2.65,0-2.65-2.83-2.68-1.12,0-2.23,0-3.35,0s-1.71-.28-1.69-1.48q0-3.18,0-6.35c0-1.17.6-1.55,1.67-1.53,1.45,0,2.9,0,4.35,0,1.24,0,1.86-.48,1.85-1.76,0-1.78.08-3.57.06-5.35-.07-8,5.75-12.05,12.06-11.63C66.79,34.93,67.24,34.9,67.69,34.9Z" transform="translate(-46.36 -34.87)"/></svg>