<svg id="Layer_1" data-name="Layer 1" xmlns="http://www.w3.org/2000/svg" viewBox="0 0 52.87 52.92"><defs><style>.cls-1{fill:#fff;}</style></defs><path class="cls-1" d="M60.24,86.84c-4,0-8,.19-12,0-7.19-.43-11.36-4.2-13.15-9.45A19,19,0,0,1,34,71.62c-.12-7.33-.09-14.66,0-22a18.94,18.94,0,0,1,.74-4.9A13.41,13.41,0,0,1,46.06,34.6,49.21,49.21,0,0,1,53.93,34c5.47-.06,10.94,0,16.41.09a25.43,25.43,0,0,1,5.5.71c6.51,1.57,10.56,6.68,10.81,13.93.22,6.34.13,12.7.16,19,0,1.65,0,3.32-.14,5-.52,8.22-6.16,13.77-14.41,14-4,.13-8,0-12,0Zm.07-4.79v0c3.81,0,7.62.06,11.43,0a9.94,9.94,0,0,0,8-3.71,10.87,10.87,0,0,0,2.16-6.86c.08-7.33.16-14.66,0-22-.16-6.41-3.69-9.86-10.07-10.27-1.85-.12-3.71-.2-5.56-.18-6.15.06-12.31,0-18.44.34-5,.3-8.12,3.7-8.66,8.75a32.24,32.24,0,0,0-.19,3.8c0,6.94-.06,13.87.2,20.8.19,5,3.06,8,8,9.07a13.53,13.53,0,0,0,2.61.28C53.27,82.07,56.79,82.05,60.31,82.05Z" transform="translate(-33.94 -33.99)"/><path class="cls-1" d="M73.94,60.67A13.2,13.2,0,0,1,60.35,74.2a13.64,13.64,0,1,1,.22-27.27C68.37,47,74.41,53.7,73.94,60.67Zm-4.84-.29a8.73,8.73,0,1,0-17.46.33,8.73,8.73,0,1,0,17.46-.33Z" transform="translate(-33.94 -33.99)"/><path class="cls-1" d="M74.55,43.25a3.25,3.25,0,0,1,3.23,3.08A3.34,3.34,0,0,1,74.5,49.7a3.29,3.29,0,0,1-3.17-3.43A3.06,3.06,0,0,1,74.55,43.25Z" transform="translate(-33.94 -33.99)"/></svg>