<svg id="Layer_1" data-name="Layer 1" xmlns="http://www.w3.org/2000/svg" viewBox="0 0 67.31 47.51"><defs><style>.cls-1{fill:#fff;}</style></defs><path class="cls-1" d="M93.1,46.55c-.67-5.13-3-7.67-8.06-8.62a22.06,22.06,0,0,0-3.1-.45c-7.2-.32-14.39-.61-21.58-.91v.33c-4,0-7.91-.13-11.85,0A131.77,131.77,0,0,0,35.32,38c-4.78.7-7.09,3.28-7.73,8.09a83.81,83.81,0,0,0-.8,9.36c-.14,6.38-.32,12.78.76,19.12.89,5.26,3.38,7.8,8.71,8.33,4.49.44,9,.54,13.54.82a214,214,0,0,0,34.43-.81c5.6-.57,8.15-3.24,8.88-8.93A106.34,106.34,0,0,0,93.1,46.55ZM69.23,61.26q-7,4.14-14.1,8.17c-1.32.75-1.56.6-1.57-1q0-8.15,0-16.3a4.86,4.86,0,0,1,.51-1.36c.58.29.9.44,1.2.61,4.6,2.65,9.22,5.28,13.8,8C70.43,60.19,70.46,60.55,69.23,61.26Z" transform="translate(-26.68 -36.57)"/><path class="cls-1" d="M93.1,46.55c-.67-5.13-3-7.67-8.06-8.62a22.06,22.06,0,0,0-3.1-.45c-7.2-.32-14.39-.61-21.58-.91v.33c-4,0-7.91-.13-11.85,0A131.77,131.77,0,0,0,35.32,38c-4.78.7-7.09,3.28-7.73,8.09a83.81,83.81,0,0,0-.8,9.36c-.14,6.38-.32,12.78.76,19.12.89,5.26,3.38,7.8,8.71,8.33,4.49.44,9,.54,13.54.82a214,214,0,0,0,34.43-.81c5.6-.57,8.15-3.24,8.88-8.93A106.34,106.34,0,0,0,93.1,46.55ZM69.23,61.26q-7,4.14-14.1,8.17c-1.32.75-1.56.6-1.57-1q0-8.15,0-16.3a4.86,4.86,0,0,1,.51-1.36c.58.29.9.44,1.2.61,4.6,2.65,9.22,5.28,13.8,8C70.43,60.19,70.46,60.55,69.23,61.26Z" transform="translate(-26.68 -36.57)"/></svg>